<svg width="800" height="683" viewBox="0 0 800 683" fill="none" xmlns="http://www.w3.org/2000/svg">
<g filter="url(#filter0_d_1_6)">
<path d="M493.333 53.7334C493.333 54.1333 496.8 56.4 501.067 58.6667C513.2 65.6 535.6 80.9333 548.8 91.4667C576.667 113.867 594.4 138.533 599.333 162.133C602 174.533 601.867 181.2 598.533 200.8L595.6 217.467L598.667 220.667C602.533 224.8 602.533 224.8 612.933 220.667C622.133 216.933 647.733 209.867 648.533 210.8C649.733 212 668 249.333 671.333 257.333C673.333 262.133 675.467 266.533 676 267.2C677.467 268.667 691.067 251.333 703.6 232.4C714.933 215.2 715.067 218.533 702.267 199.333C677.067 161.467 638.933 123.467 602 99.7333C573.333 81.2 534.667 63.7334 506.533 56.6667C501.867 55.4667 496.933 54.2667 495.733 53.8667C494.4 53.4667 493.333 53.4667 493.333 53.7334Z" fill="#DE8E16"/>
<path d="M296 64.6667C262.933 76.4 224.667 98 196 120.8C169.333 142.133 137.6 178 119.467 207.067L113.067 217.467L124.4 234.4C139.067 256.267 150.8 270.667 167.333 287.333C210.267 330.667 260.4 360.4 318.933 377.333C326.667 379.467 333.733 381.333 334.8 381.333C335.733 381.333 330 377.333 322 372.533C258.8 334.667 226.667 295.467 226.667 256.4C226.667 243.067 228.667 234.533 235.2 220.667C252.533 183.867 290.133 151.467 369.333 104.933L387.333 94.4L364.667 95.2C338.4 96 322.533 97.6 297.333 101.867C274.267 105.867 273.467 105.333 282.533 92.5334C290 82.1334 297.333 74.1334 308 64.9333C312 61.4667 314.667 58.6667 314 58.8C313.2 58.8 305.2 61.4667 296 64.6667Z" fill="#DE8E16"/>
<path d="M159.2 476.8C151.467 479.6 143.2 487.067 138.933 495.2C135.733 501.2 135.333 503.467 135.333 514.667C135.333 526.267 135.733 528 139.333 534.533C146.533 547.467 157.067 553.333 173.333 553.333C185.6 553.333 194 550.133 201.467 542.667C219.467 524.667 214.8 490.133 192.667 478.8C184.533 474.533 168 473.6 159.2 476.8ZM187.733 491.067C194.8 495.733 198.667 503.867 198.667 514.133C198.667 532.667 185.733 543.6 167.733 540.667C153.2 538.133 143.733 518.133 150 502.933C156.4 487.867 174.4 482.133 187.733 491.067Z" fill="#DE8E16"/>
<path d="M553.6 477.2C549.867 478.533 545.467 480.667 544 482C540.4 485.2 538.133 493.333 539.2 498.933C540.8 507.467 547.2 511.067 568.133 515.333C580.667 517.867 588.533 521.333 590.667 525.2C594.8 533.2 589.6 544 580.267 546.667C567.067 550.267 552.533 547.2 544.8 538.933C541.067 534.933 537.333 534.533 537.333 538C537.333 541.333 548.4 549.333 555.867 551.6C570.267 555.733 589.2 551.333 594.667 542.4C597.867 537.067 598.133 528.133 595.333 522.667C592.533 517.2 585.733 514.133 569.333 510.667C553.733 507.333 549.2 505.467 546.133 501.067C538.8 490.667 550 480.133 568.4 480C577.867 480 583.333 481.867 589.067 487.067C591.467 489.333 592.4 489.467 593.733 488.133C596 485.867 587.333 478 580.4 476.133C572.8 474 561.6 474.4 553.6 477.2Z" fill="#DE8E16"/>
<path d="M80 514V552H106.667H133.333V545.333V538.667H114H94.6667V507.333V476H87.3333H80V514Z" fill="#DE8E16"/>
<path d="M222.667 514V552H229.333H236V539.333V526.667H243.733H251.467L262.4 539.333L273.467 552H281.6C290.933 552 291.6 553.867 276.267 536.533C270.933 530.667 266.667 525.333 266.667 524.933C266.667 524.4 267.6 524 268.8 524C272.933 524 280.133 518.4 282.8 512.933C286.933 505.067 286 492.8 280.8 486C274.267 477.467 269.2 476 244.4 476H222.667V514ZM268.133 493.067C273.333 498.8 273.2 504.267 268.133 509.467C264.267 513.2 263.867 513.333 250.133 513.333H236V500.533V487.733L250.133 488.267C264.133 488.8 264.267 488.8 268.133 493.067Z" fill="#DE8E16"/>
<path d="M297.333 514V552H325.333H353.333V547.467C353.333 544.933 353.733 542 354.133 540.8C354.8 538.933 352.4 538.667 332.8 538.667H310.667V529.333V520H331.333H352V514V508.133L331.733 507.733L311.333 507.333L310.933 498.267L310.533 489.333H332.667H354.667V485.6C354.667 483.6 354.267 480.667 353.867 478.933C353.067 476 352.933 476 325.2 476H297.333V514Z" fill="#DE8E16"/>
<path d="M365.333 514V552H372H378.667V524.667C378.667 509.6 379.067 497.333 379.733 497.333C380.267 497.333 385.733 504.533 392 513.333C398.267 522 404.267 529.2 405.333 529.2C406.4 529.2 412.8 522 419.333 513.067L431.333 496.8L431.733 524.4L432 552H438.667H445.333V514V476H437.467H429.6L418 492C411.733 500.8 406.133 508 405.6 508C405.067 508 399.6 500.8 393.333 492L382 476.133L373.733 476H365.333V514Z" fill="#DE8E16"/>
<path d="M457.333 514C457.333 551.067 457.333 552 460 552C462.667 552 462.667 551.067 462.667 514C462.667 476.933 462.667 476 460 476C457.333 476 457.333 476.933 457.333 514Z" fill="#DE8E16"/>
<path d="M474.667 514C474.667 551.067 474.667 552 477.333 552C479.867 552 480 551.067 480 538.667V525.333H497.067C519.733 525.2 526.267 522.4 531.333 510.267C536.533 497.867 530.267 482 518.267 477.467C516.133 476.667 505.467 476 494.533 476H474.667V514ZM518.533 483.333C527.2 488.4 530.133 498.667 525.867 509.333C522.267 518.4 518 520 497.467 520H480V500.933C480 490.4 480.4 481.333 481.067 480.8C481.6 480.267 489.2 480 498 480.267C511.067 480.533 514.8 481.2 518.533 483.333Z" fill="#DE8E16"/>
<path d="M605.333 502.533C605.333 530.4 606 534.8 611.6 542.4C620.933 554.933 642.933 556.4 654.533 545.067C662.533 537.333 663.2 534.267 663.733 503.6C664.267 476.4 664.133 476 661.467 476C658.667 476 658.667 476.533 658.667 501.6C658.533 534.4 656.933 539.333 645.067 545.467C632.933 551.733 616.933 545.6 612.133 532.933C611.2 530.667 610.667 518.133 610.667 502.533C610.667 476.933 610.533 476 608 476C605.467 476 605.333 476.933 605.333 502.533Z" fill="#DE8E16"/>
<path d="M674.667 514C674.667 551.067 674.8 552 677.333 552C679.867 552 680 550.933 680.267 517.733L680.667 483.467L695.067 505.733C703.067 518 710 528.267 710.667 528.667C711.2 528.933 718.133 519.2 726.133 506.933L740.667 484.667L741.067 518.4C741.333 550.933 741.467 552 744 552C746.533 552 746.667 551.067 746.667 514V476H743.333C740.533 476 738 479.067 727.067 496C719.867 506.933 713.333 516.933 712.533 518.267C711.2 520.4 709.067 517.6 696.533 498.4C683.6 478.667 681.6 476.133 678.4 476.133L674.667 476V514Z" fill="#DE8E16"/>
<path d="M236 587.6C231.733 589.2 229.333 592.533 229.333 596.8C229.333 602 232.933 605.067 240.8 606.267C247.067 607.2 249.333 608.8 249.333 612.133C249.333 617.467 238.533 618.667 233.333 614C230.4 611.333 226.8 613.6 228.8 616.933C232.267 622.667 246.133 623.867 251.867 618.933C259.333 612.667 254.933 603.6 243.6 601.467C235.733 600 233.467 598.267 235.467 594.933C237.467 591.867 243.467 591.333 247.2 593.867C249.867 595.6 250.8 595.6 252.8 594.133C255.067 592.4 254.933 592.133 250.667 589.467C246.267 586.8 240.267 586 236 587.6Z" fill="#DE8E16"/>
<path d="M439.2 588.533C434 590.8 429.6 596.4 428.667 601.867C427.6 607.467 430.533 615.867 434.8 619.067C439.467 622.4 450.4 622.667 455.2 619.6C458.267 617.6 458.667 616.4 458.667 610V602.667H452C446.267 602.667 445.333 603.067 445.333 605.333C445.333 607.467 446.267 608 449.333 608C452.667 608 453.333 608.533 453.333 611.333C453.333 615.867 448 618 441.733 615.867C436.4 614.133 434.667 611.333 434.667 604.267C434.667 599.867 435.467 598.267 438.933 595.333C442.4 592.4 444 592 447.2 592.667C453.867 594.267 456.4 594.133 456.933 592.267C457.6 590.533 449.733 586.667 445.733 586.667C444.4 586.8 441.467 587.6 439.2 588.533Z" fill="#DE8E16"/>
<path d="M296 604.667V621.333H307.333C317.733 621.333 318.667 621.067 318.667 618.667C318.667 616.267 317.733 616 310 616H301.333V602C301.333 588.933 301.2 588 298.667 588C296.133 588 296 588.933 296 604.667Z" fill="#DE8E16"/>
<path d="M363.2 590.533C357.867 593.733 355.467 599.733 356.4 607.467C357.6 618 366.933 624.267 377.6 621.333C385.333 619.2 389.333 613.333 389.333 604.4C389.333 597.867 388.8 596.533 384.8 592.533C380.933 588.667 379.333 588 373.867 588C369.867 588 365.733 588.933 363.2 590.533ZM381.333 597.067C385.333 602.133 384.8 608.667 380 613.6C376.533 616.933 375.2 617.467 371.6 616.8C365.067 615.6 360.933 610 361.733 603.6C362.133 600.8 363.467 597.333 364.667 596C368.933 591.333 377.333 591.867 381.333 597.067Z" fill="#DE8E16"/>
<path d="M509.467 590.933C508.8 592.667 506 598.8 503.333 604.667C495.467 621.467 495.6 621.333 499.2 621.333C501.2 621.333 502.8 620.133 503.733 618C505.2 614.933 506 614.667 514 614.667C522 614.667 522.8 614.933 524.267 618C525.2 620.133 526.8 621.333 528.933 621.333C530.533 621.333 532 621.2 532 620.933C532 620.8 528.8 613.467 524.933 604.667C518.533 590.533 517.333 588.667 514.267 588.267C511.467 587.867 510.4 588.533 509.467 590.933ZM519.2 606.267C520.133 609.2 519.733 609.333 514 609.333C509.467 609.333 507.867 608.8 508.4 607.6C508.8 606.8 510.133 603.333 511.467 600.133L513.733 594.267L516 598.8C517.333 601.333 518.8 604.667 519.2 606.267Z" fill="#DE8E16"/>
<path d="M570.667 604.667V621.333H574C577.067 621.333 577.2 621.067 577.6 610.533L578 599.6L586.533 610.533C591.733 617.067 596 621.333 597.467 621.333C599.867 621.333 600 620 600 604.667C600 588.933 599.867 588 597.333 588C595.067 588 594.8 589.067 594.4 599.467L594 610.933L584.933 599.467C579.067 592.133 574.8 588 573.2 588C570.8 588 570.667 589.067 570.667 604.667Z" fill="#DE8E16"/>
</g>
<defs>
<filter id="filter0_d_1_6" x="76" y="53.5475" width="674.667" height="576.509" filterUnits="userSpaceOnUse" color-interpolation-filters="sRGB">
<feFlood flood-opacity="0" result="BackgroundImageFix"/>
<feColorMatrix in="SourceAlpha" type="matrix" values="0 0 0 0 0 0 0 0 0 0 0 0 0 0 0 0 0 0 127 0" result="hardAlpha"/>
<feOffset dy="4"/>
<feGaussianBlur stdDeviation="2"/>
<feComposite in2="hardAlpha" operator="out"/>
<feColorMatrix type="matrix" values="0 0 0 0 0 0 0 0 0 0 0 0 0 0 0 0 0 0 0.25 0"/>
<feBlend mode="normal" in2="BackgroundImageFix" result="effect1_dropShadow_1_6"/>
<feBlend mode="normal" in="SourceGraphic" in2="effect1_dropShadow_1_6" result="shape"/>
</filter>
</defs>
</svg>